<svg width="2663" height="638" viewBox="0 0 2663 638" fill="none" xmlns="http://www.w3.org/2000/svg">
<path d="M306.236 177.323C286.064 163.023 272.302 141.386 267.901 117.055C316.187 131.619 357.532 163.241 384.231 206.028C410.93 248.816 421.163 299.851 413.023 349.625C404.883 399.398 378.925 444.514 339.986 476.567C301.047 508.62 251.783 525.423 201.373 523.846C150.963 522.269 102.846 502.418 65.9871 467.993C29.1282 433.569 6.04182 386.917 1.02953 336.733C-3.98276 286.548 9.42094 236.252 38.7431 195.217C68.0653 154.183 111.306 125.208 160.408 113.691C149.8 129.068 140.927 145.572 133.95 162.901C100.356 179.114 73.0248 205.921 56.1637 239.193C39.3026 272.466 33.8472 310.358 40.6377 347.036C47.4282 383.714 66.088 417.142 93.7434 442.172C121.399 467.203 156.516 482.448 193.687 485.56C230.858 488.671 268.021 479.477 299.453 459.392C330.885 439.308 354.842 409.447 367.636 374.409C380.43 339.371 381.35 301.098 370.255 265.485C359.161 229.873 336.666 198.895 306.236 177.323Z" fill="#89CFF0"/>
<path d="M136.02 233.876C139.805 196.491 152.525 160.565 173.107 129.128C193.69 97.6905 221.53 71.6637 254.281 53.2427C254.625 53.049 255.021 52.9682 255.414 53.0113C255.806 53.0545 256.175 53.2195 256.469 53.4833C256.763 53.747 256.967 54.0963 257.052 54.4819C257.137 54.8675 257.1 55.2701 256.944 55.6332C246.747 79.4641 245.023 106.069 252.059 131.017C259.095 155.965 274.467 177.749 295.613 192.74C321.968 211.422 341.645 238.056 351.76 268.737C361.875 299.417 361.897 332.531 351.821 363.225C341.746 393.919 322.103 420.578 295.773 439.295C269.442 458.012 237.809 467.802 205.509 467.231C173.209 466.66 141.941 455.758 116.289 436.122C90.6363 416.486 71.9484 389.149 62.9641 358.118C53.9798 327.088 55.1717 293.995 66.3651 263.691C77.5584 233.387 98.1645 207.466 125.163 189.726C121.322 203.557 118.664 217.69 117.218 231.972C116.966 234.465 117.715 236.956 119.299 238.897C120.884 240.838 123.174 242.07 125.667 242.323C128.16 242.575 130.651 241.827 132.592 240.243C134.534 238.659 135.767 236.369 136.02 233.876Z" fill="#FFFBEB"/>
<path d="M177.051 346.37C178.667 348.095 180.606 349.485 182.758 350.46C184.911 351.435 187.235 351.977 189.596 352.055C191.958 352.132 194.312 351.743 196.524 350.911C198.736 350.079 200.762 348.819 202.487 347.203C204.212 345.588 205.601 343.649 206.577 341.496C207.552 339.344 208.094 337.02 208.171 334.658C208.249 332.296 207.86 329.942 207.028 327.731C206.196 325.519 204.936 323.493 203.32 321.768C194.17 311.997 187.5 300.172 183.871 287.287C180.242 274.402 179.761 260.834 182.467 247.724C185.174 234.615 190.989 222.347 199.424 211.952C207.859 201.558 218.667 193.341 230.939 187.994C231.285 187.843 231.669 187.799 232.04 187.868C232.411 187.937 232.753 188.116 233.022 188.381C233.291 188.647 233.474 188.987 233.547 189.357C233.621 189.727 233.582 190.111 233.436 190.459C224.536 211.598 222.489 234.995 227.582 257.358C232.675 279.722 244.653 299.925 261.829 315.125C262.374 315.607 263.047 315.922 263.766 316.031C264.486 316.14 265.222 316.039 265.886 315.74C266.549 315.441 267.113 314.957 267.508 314.346C267.903 313.734 268.113 313.022 268.113 312.294V293.572C268.113 293.186 268.232 292.809 268.453 292.492C268.674 292.175 268.987 291.933 269.349 291.799C269.712 291.666 270.107 291.646 270.481 291.744C270.855 291.842 271.19 292.052 271.441 292.346C281.75 304.431 288.382 319.217 290.552 334.954C292.721 350.691 290.337 366.719 283.683 381.144C277.028 395.568 266.38 407.784 253 416.347C239.62 424.909 224.067 429.459 208.181 429.459C192.296 429.459 176.743 424.909 163.362 416.347C149.982 407.784 139.335 395.568 132.68 381.144C126.025 366.719 123.641 350.691 125.811 334.954C127.98 319.217 134.612 304.431 144.922 292.346C145.147 292.081 145.442 291.884 145.772 291.776C146.103 291.668 146.457 291.653 146.795 291.734C147.134 291.814 147.444 291.986 147.69 292.231C147.937 292.476 148.112 292.784 148.195 293.122C153.085 313.053 163.023 331.391 177.051 346.37Z" fill="#EF4444" stroke="#FFFBEB" stroke-width="1.42848" stroke-linecap="round" stroke-linejoin="round"/>
<path d="M578.775 468L487.4 365.15V468H448.725V153.5H487.4V338.375L577.075 235.1H631.05L521.4 351.125L631.475 468H578.775ZM706.126 266.975V404.25C706.126 415.583 708.534 423.658 713.351 428.475C718.167 433.008 726.526 435.275 738.426 435.275H766.901V468H732.051C710.517 468 694.367 463.042 683.601 453.125C672.834 443.208 667.451 426.917 667.451 404.25V266.975H637.276V235.1H667.451V176.45H706.126V235.1H766.901V266.975H706.126ZM790.81 350.7C790.81 326.9 795.627 306.075 805.26 288.225C814.893 270.092 828.068 256.067 844.785 246.15C861.785 236.233 880.627 231.275 901.31 231.275C921.71 231.275 939.419 235.667 954.435 244.45C969.452 253.233 980.644 264.283 988.01 277.6V235.1H1027.11V468H988.01V424.65C980.36 438.25 968.885 449.583 953.585 458.65C938.569 467.433 921.002 471.825 900.885 471.825C880.202 471.825 861.502 466.725 844.785 456.525C828.068 446.325 814.893 432.017 805.26 413.6C795.627 395.183 790.81 374.217 790.81 350.7ZM988.01 351.125C988.01 333.558 984.469 318.258 977.385 305.225C970.302 292.192 960.668 282.275 948.485 275.475C936.585 268.392 923.41 264.85 908.96 264.85C894.51 264.85 881.335 268.25 869.435 275.05C857.535 281.85 848.043 291.767 840.96 304.8C833.877 317.833 830.335 333.133 830.335 350.7C830.335 368.55 833.877 384.133 840.96 397.45C848.043 410.483 857.535 420.542 869.435 427.625C881.335 434.425 894.51 437.825 908.96 437.825C923.41 437.825 936.585 434.425 948.485 427.625C960.668 420.542 970.302 410.483 977.385 397.45C984.469 384.133 988.01 368.692 988.01 351.125ZM1069.52 350.7C1069.52 326.9 1074.33 306.075 1083.97 288.225C1093.6 270.092 1106.78 256.067 1123.49 246.15C1140.49 236.233 1159.33 231.275 1180.02 231.275C1200.42 231.275 1218.13 235.667 1233.14 244.45C1248.16 253.233 1259.35 264.283 1266.72 277.6V235.1H1305.82V468H1266.72V424.65C1259.07 438.25 1247.59 449.583 1232.29 458.65C1217.28 467.433 1199.71 471.825 1179.59 471.825C1158.91 471.825 1140.21 466.725 1123.49 456.525C1106.78 446.325 1093.6 432.017 1083.97 413.6C1074.33 395.183 1069.52 374.217 1069.52 350.7ZM1266.72 351.125C1266.72 333.558 1263.18 318.258 1256.09 305.225C1249.01 292.192 1239.38 282.275 1227.19 275.475C1215.29 268.392 1202.12 264.85 1187.67 264.85C1173.22 264.85 1160.04 268.25 1148.14 275.05C1136.24 281.85 1126.75 291.767 1119.67 304.8C1112.58 317.833 1109.04 333.133 1109.04 350.7C1109.04 368.55 1112.58 384.133 1119.67 397.45C1126.75 410.483 1136.24 420.542 1148.14 427.625C1160.04 434.425 1173.22 437.825 1187.67 437.825C1202.12 437.825 1215.29 434.425 1227.19 427.625C1239.38 420.542 1249.01 410.483 1256.09 397.45C1263.18 384.133 1266.72 368.692 1266.72 351.125ZM1476.15 230.85C1504.48 230.85 1527.43 239.492 1545 256.775C1562.57 273.775 1571.35 298.425 1571.35 330.725V468H1533.1V336.25C1533.1 313.017 1527.29 295.308 1515.67 283.125C1504.06 270.658 1488.19 264.425 1468.07 264.425C1447.67 264.425 1431.38 270.8 1419.2 283.55C1407.3 296.3 1401.35 314.858 1401.35 339.225V468H1362.67V235.1H1401.35V268.25C1409 256.35 1419.34 247.142 1432.37 240.625C1445.69 234.108 1460.28 230.85 1476.15 230.85ZM1646 197.275C1638.63 197.275 1632.4 194.725 1627.3 189.625C1622.2 184.525 1619.65 178.292 1619.65 170.925C1619.65 163.558 1622.2 157.325 1627.3 152.225C1632.4 147.125 1638.63 144.575 1646 144.575C1653.08 144.575 1659.03 147.125 1663.85 152.225C1668.95 157.325 1671.5 163.558 1671.5 170.925C1671.5 178.292 1668.95 184.525 1663.85 189.625C1659.03 194.725 1653.08 197.275 1646 197.275ZM1664.7 235.1V468H1626.02V235.1H1664.7Z" fill="#89CFF0"/>
<rect x="1698" y="114" width="965" height="410" rx="50" fill="#272727"/>
<path d="M1898.13 169.65C1929.58 169.65 1957.06 175.883 1980.58 188.35C2004.09 200.817 2022.23 218.383 2034.98 241.05C2048.01 263.433 2054.53 289.358 2054.53 318.825C2054.53 348.008 2048.01 373.933 2034.98 396.6C2022.23 419.267 2003.95 436.833 1980.15 449.3C1956.63 461.767 1929.29 468 1898.13 468H1786.35V169.65H1898.13ZM1893.45 405.1C1920.93 405.1 1942.33 397.592 1957.63 382.575C1972.93 367.558 1980.58 346.308 1980.58 318.825C1980.58 291.342 1972.93 269.95 1957.63 254.65C1942.33 239.35 1920.93 231.7 1893.45 231.7H1859.03V405.1H1893.45ZM2288.51 169.65V227.875H2209.46V468H2136.79V227.875H2057.74V169.65H2288.51ZM2291.41 318.4C2291.41 288.933 2297.79 262.725 2310.54 239.775C2323.29 216.542 2341 198.55 2363.66 185.8C2386.61 172.767 2412.54 166.25 2441.44 166.25C2476.85 166.25 2507.17 175.6 2532.39 194.3C2557.6 213 2574.46 238.5 2582.96 270.8H2503.06C2497.11 258.333 2488.61 248.842 2477.56 242.325C2466.8 235.808 2454.47 232.55 2440.59 232.55C2418.2 232.55 2400.07 240.342 2386.19 255.925C2372.3 271.508 2365.36 292.333 2365.36 318.4C2365.36 344.467 2372.3 365.292 2386.19 380.875C2400.07 396.458 2418.2 404.25 2440.59 404.25C2454.47 404.25 2466.8 400.992 2477.56 394.475C2488.61 387.958 2497.11 378.467 2503.06 366H2582.96C2574.46 398.3 2557.6 423.8 2532.39 442.5C2507.17 460.917 2476.85 470.125 2441.44 470.125C2412.54 470.125 2386.61 463.75 2363.66 451C2341 437.967 2323.29 419.975 2310.54 397.025C2297.79 374.075 2291.41 347.867 2291.41 318.4Z" fill="#FFFBEB"/>
</svg>
