<svg width="1055" height="149.08" version="1.1" viewBox="0 0 1055 149.08" xmlns="http://www.w3.org/2000/svg">
 <g transform="translate(-271.62 -408.97)" display="none">
  <rect x="230" y="234.53" width="1222" height="554.44" ry="8.991" fill-opacity=".86345" stroke-width="1.2618"/>
 </g>
 <g transform="translate(-271.62 -408.97)">
  <g>
   <g fill="#89cff0" aria-label="oktaani">
    <path d="m324.78 450.79q23.531 0 39 17.062 14.062 15.562 14.062 36.844 0 21.375-14.906 37.406-14.812 15.938-38.156 15.938-23.438 0-38.344-15.938-14.812-16.031-14.812-37.406 0-21.188 14.062-36.75 15.469-17.156 39.094-17.156zm0 12.844q-16.312 0-28.031 12.094t-11.719 29.25q0 11.062 5.3438 20.625t14.438 14.812q9.0938 5.1562 19.969 5.1562t19.969-5.1562q9.0938-5.25 14.438-14.812t5.3438-20.625q0-17.156-11.812-29.25-11.719-12.094-27.938-12.094z"/>
    <path d="m402.12 414.04h13.219v80.438l47.156-41.062h19.312l-55.969 48.656 59.25 53.344h-18.562l-51.188-45.844v45.844h-13.219z"/>
    <path d="m510.03 415.54h13.219v37.875h20.812v11.25h-20.812v90.75h-13.219v-90.75h-17.906v-11.25h17.906z"/>
    <path d="m665.28 453.42v102h-12.938v-17.531q-8.25 10.031-18.562 15.094-10.219 5.0625-22.406 5.0625-21.656 0-37.031-15.656-15.281-15.75-15.281-38.25 0-22.031 15.469-37.688t37.219-15.656q12.562 0 22.688 5.3438 10.219 5.3438 17.906 16.031v-18.75zm-52.5 10.031q-10.969 0-20.25 5.4375-9.2812 5.3438-14.812 15.094-5.4375 9.75-5.4375 20.625 0 10.781 5.5312 20.625t14.812 15.375q9.375 5.4375 20.062 5.4375 10.781 0 20.438-5.4375t14.812-14.719q5.25-9.2812 5.25-20.906 0-17.719-11.719-29.625-11.625-11.906-28.688-11.906z"/>
    <path d="m796.44 453.42v102h-12.938v-17.531q-8.25 10.031-18.562 15.094-10.219 5.0625-22.406 5.0625-21.656 0-37.031-15.656-15.281-15.75-15.281-38.25 0-22.031 15.469-37.688t37.219-15.656q12.562 0 22.688 5.3438 10.219 5.3438 17.906 16.031v-18.75zm-52.5 10.031q-10.969 0-20.25 5.4375-9.2812 5.3438-14.812 15.094-5.4375 9.75-5.4375 20.625 0 10.781 5.5312 20.625t14.812 15.375q9.375 5.4375 20.062 5.4375 10.781 0 20.438-5.4375t14.812-14.719q5.25-9.2812 5.25-20.906 0-17.719-11.719-29.625-11.625-11.906-28.688-11.906z"/>
    <path d="m825.97 453.42h13.125v18.281q7.875-10.5 17.438-15.656 9.5625-5.25 20.812-5.25 11.438 0 20.25 5.8125 8.9062 5.8125 13.125 15.656t4.2188 30.656v52.5h-13.031v-48.656q0-17.625-1.5-23.531-2.3438-10.125-8.8125-15.188-6.4688-5.1562-16.875-5.1562-11.906 0-21.375 7.875-9.375 7.875-12.375 19.5-1.875 7.5938-1.875 27.75v37.406h-13.125z"/>
    <path d="m947.66 411.42q4.5 0 7.6875 3.1875t3.1875 7.6875q0 4.4062-3.1875 7.5938t-7.6875 3.1875q-4.4062 0-7.5938-3.1875t-3.1875-7.5938q0-4.5 3.1875-7.6875t7.5938-3.1875zm-6.5625 42h13.219v102h-13.219z"/>
   </g>
   <a fill="#e6f4f1">
    <g stroke-width=".42345" aria-label="DTC">
     <path d="m979.96 411.42h53.14q17.975 0 27.405 2.7503 12.671 3.7326 21.708 13.261t13.752 23.378q4.7148 13.752 4.7148 33.986 0 17.779-4.4202 30.647-5.4024 15.716-15.422 25.441-7.5634 7.367-20.431 11.492-9.6261 3.045-25.735 3.045h-54.712zm29.075 24.36v95.378h21.708q12.18 0 17.582-1.3752 7.0723-1.7681 11.689-5.9918 4.7149-4.2237 7.6617-13.85 2.9467-9.7244 2.9467-26.423 0-16.698-2.9467-25.637-2.9468-8.9386-8.251-13.948t-13.457-6.7776q-6.09-1.3752-23.869-1.3752z"/>
     <path d="m1136.8 555.42v-119.64h-42.728v-24.36h114.43v24.36h-42.63v119.64z"/>
     <path d="m1298.4 502.48 28.191 8.9386q-6.4829 23.574-21.61 35.067-15.029 11.394-38.21 11.394-28.682 0-47.148-19.547-18.466-19.645-18.466-53.631 0-35.951 18.565-55.792 18.565-19.94 48.818-19.94 26.423 0 42.925 15.618 9.8226 9.2332 14.734 26.521l-28.78 6.8758q-2.5539-11.198-10.707-17.681-8.0545-6.4829-19.645-6.4829-16.011 0-26.03 11.492-9.9208 11.492-9.9208 37.228 0 27.307 9.8226 38.898t25.539 11.591q11.591 0 19.94-7.367 8.3492-7.367 11.984-23.181z"/>
    </g>
   </a>
  </g>
 </g>
</svg>
